<?xml version="1.0" encoding="utf-8"?>
<!DOCTYPE svg PUBLIC "-//W3C//DTD SVG 1.1//EN" "http://www.w3.org/Graphics/SVG/1.1/DTD/svg11.dtd">
<svg version="1.1" id="Layer_1" xmlns="http://www.w3.org/2000/svg" xmlns:xlink="http://www.w3.org/1999/xlink" x="0px" y="0px"
	 width="1200px" height="600px" viewBox="0 0 1200 600" enable-background="new 0 0 1200 600" xml:space="preserve">
    <path fill="#333333" d="M1136.936,280.662c-83.904-0.013-167.834,1.162-251.689-0.442c-52.787-1.01-81.188-28.894-82.703-75.215
	c-2.057-63.086,16.961-91.109,75.18-94.424c69.709-3.965,139.834-0.928,211.805-0.928c-0.102-33.081-17.908-47.938-42.154-51.909
	c-30.371-4.951-61.59-5.678-92.492-6.359c-43.693-0.985-87.439-0.247-133.256-0.247V7.166c64.732,0,130.074-0.189,195.428,0.195
	c10.758,0.069,21.557,2.418,32.266,4.206c45.336,7.54,69.949,38.625,87.617,77.508V280.662z M1090.373,236.083v-82.351
	c-70.732,0-139.596-0.436-208.434,0.234c-25.84,0.247-35.777,15.501-36.309,40.973c-0.555,26.458,11.633,40.412,36.334,40.778
	C950.814,236.778,1019.703,236.083,1090.373,236.083"/>
    <path fill="#333333" d="M454.678,181.932c1.293,35.386,21.272,54.366,58.356,54.808c60.15,0.72,120.325,0.316,180.474,0.34
	c40.285,0.025,40.285,0.025,36.699,38.341c-78.928,0-157.812,3.056-236.287-1.188c-45.153-2.437-75.089-32.91-80.147-79.496
	c-3.479-31.988-3.567-64.829-0.802-96.912c5.032-58.477,57.702-88.142,114.926-90.338c40.968-1.578,82.048-1.073,123.041-0.171
	c82.4,1.825,106.17,65.53,83.4,127.871c-9.801,26.804-32.104,39.887-59.115,41.264c-58.027,2.993-116.164,3.877-174.274,5.418
	C485.555,182.286,470.141,181.932,454.678,181.932 M454.583,135.832c7.696,0.391,15.741,1.193,23.772,1.142
	c60.919-0.429,121.841-0.586,182.748-1.761c25.371-0.493,37.24-14.871,37.203-40.513c-0.049-25.181-11.1-41.138-36.459-41.554
	c-50.83-0.827-101.937-2.443-152.47,1.724C465.329,58.5,447.745,87.881,454.583,135.832"/>
    <path fill="#333333" d="M367.919,8.701c-43.834,46.89-87.661,93.779-133.427,142.739c47.717,40.38,97.442,82.458,150.488,127.354
	c-33.635,2.538-61.83,7.312-87.263-19.195c-24.431-25.447-54.17-45.753-80.873-69.116c-12.042-10.532-21.33-10.633-32.683,0.883
	c-21.708,22.076-46.265,41.586-66.08,65.164c-20.433,24.298-43.801,29.223-73.813,21.898V9.414h41.611v212.615
	c9.03-5.001,14.769-6.808,18.678-10.533c67.84-64.759,134.375-130.945,204.071-193.627C321.926,5.91,347.486,7.602,367.401,2.986
	C367.572,4.886,367.743,6.799,367.919,8.701"/>
    <text transform="matrix(1 0 0 1 26 459.6982)">
        <tspan x="0" y="0" fill="#333333" font-family="'Roboto-Medium'" font-size="100" letter-spacing="20">Multimeida Design</tspan>
    </text>
    <text transform="matrix(1 0 0 1 26 571.5244)">
        <tspan x="0" y="0" fill="#333333" font-family="'Roboto-Medium'" font-size="100" letter-spacing="20">&amp; Communication</tspan>
    </text>
</svg>
